<svg xmlns="http://www.w3.org/2000/svg" viewBox="0 0 1200 360" width="1200" height="360" role="img"><defs><linearGradient id="bg" x1="0" y1="0" x2="1" y2="1"><stop offset="0" stop-color="#0d0d10"/><stop offset="1" stop-color="#e01327"/></linearGradient><radialGradient id="gl" cx="0.5" cy="0.35" r="0.75"><stop offset="0" stop-color="#ff5065" stop-opacity="0.35"/><stop offset="1" stop-color="#ff5065" stop-opacity="0"/></radialGradient></defs><rect width="1200" height="360" fill="url(#bg)"/><rect width="1200" height="360" fill="url(#gl)"/><circle cx="-4" cy="26" r="74" fill="#ff5065" opacity="0.104"/><circle cx="328" cy="-34" r="120" fill="#ff5065" opacity="0.055"/><circle cx="640" cy="243" r="76" fill="#ff5065" opacity="0.107"/><circle cx="1033" cy="316" r="97" fill="#ff5065" opacity="0.052"/><circle cx="1006" cy="306" r="121" fill="#ff5065" opacity="0.08"/><circle cx="130" cy="302" r="66" fill="#ff5065" opacity="0.07"/><circle cx="839" cy="97" r="94" fill="#ff5065" opacity="0.047"/><line x1="0" y1="15" x2="1200" y2="0" stroke="#ff5065" stroke-width="1" opacity="0.05"/><line x1="0" y1="221" x2="1200" y2="244" stroke="#ff5065" stroke-width="1" opacity="0.05"/><line x1="0" y1="336" x2="1200" y2="345" stroke="#ff5065" stroke-width="1" opacity="0.05"/><rect y="50" width="1200" height="260" fill="#000000" opacity="0.20"/><text x="600" y="148" text-anchor="middle" font-family="&#39;Segoe UI&#39;,&#39;Arial&#39;,sans-serif" font-size="78" font-weight="700" fill="#ffffff" textLength="982.8" lengthAdjust="spacingAndGlyphs">IObit Uninstaller Pro</text><text x="600" y="230.7" text-anchor="middle" font-family="&#39;Segoe UI&#39;,&#39;Arial&#39;,sans-serif" font-size="78" font-weight="700" fill="#ffffff" textLength="982.8" lengthAdjust="spacingAndGlyphs">Full Version Download</text><rect x="530" y="252.7" width="140" height="4" rx="2" fill="#ff5065"/><text x="600" y="290.7" text-anchor="middle" font-family="&#39;Segoe UI&#39;,&#39;Arial&#39;,sans-serif" font-size="28.0" font-weight="400" fill="#ffffff" fill-opacity="0.85" textLength="1050.0" lengthAdjust="spacingAndGlyphs">Delivers pluggable uninstallation tools for the IObit Uninstaller Pro e…</text></svg>